<svg width="159" height="34" viewBox="0 0 159 34" fill="none" xmlns="http://www.w3.org/2000/svg">
<g clip-path="url(#clip0_301_2)">
<path d="M22.9658 4.72727C22.185 5.52496 21.4698 6.38952 20.8339 7.3114L20.6329 7.24453C19.4735 6.85763 18.272 6.6188 17.0612 6.5376C16.6965 6.50894 15.3361 6.50894 14.8919 6.5376C13.5502 6.62835 12.5217 6.83374 11.3529 7.24931C11.3061 7.26841 11.2641 7.28274 11.222 7.29707C10.5628 6.37997 9.82881 5.52018 9.02002 4.73205C12.9003 2.702 17.4398 2.4584 21.5025 4.05855C21.9373 4.22573 22.3627 4.42157 22.7788 4.63174L22.9658 4.72727Z" fill="#F00500"/>
<path d="M30.2029 22.8448C29.6139 24.5596 28.7303 26.1502 27.5849 27.5354C26.9631 28.2806 26.2758 28.9636 25.5372 29.5846C23.8074 31.008 21.7878 32.0254 19.6326 32.5604C17.2483 33.1479 14.7611 33.1479 12.3768 32.5604C10.2169 32.0254 8.20198 31.008 6.4722 29.5846C5.73354 28.9636 5.0463 28.2806 4.42451 27.5354C1.12858 23.5565 0.128112 18.0921 1.80647 13.1675C2.12437 12.2552 2.52175 11.3763 2.99861 10.5404C3.21834 10.1582 3.4895 9.72834 3.6204 9.55161C4.06921 11.5243 4.62086 13.2582 4.82657 13.884C4.81254 13.9174 4.79384 13.9556 4.77514 13.9891C3.68585 16.2436 3.09679 18.4169 2.95654 20.7288C2.95654 20.7575 2.95186 20.7909 2.95186 20.8196C2.91446 21.5122 2.93316 21.8417 3.04536 22.2764C3.39599 23.6377 4.47594 25.1376 6.16832 26.6088C8.94064 29.0162 12.6994 30.7548 15.5465 30.9555C18.5152 31.1609 22.8958 29.3887 25.813 26.7998C26.2712 26.3843 26.7013 25.9448 27.1033 25.4767C27.3932 25.1328 27.8233 24.5405 27.7906 24.5405C27.7812 24.5405 27.7906 24.531 27.8093 24.5214C27.8233 24.5119 27.8373 24.4975 27.828 24.488C27.8233 24.4832 27.8326 24.4689 27.8467 24.4641C27.8607 24.4593 27.87 24.4498 27.8654 24.4402C27.8607 24.4307 27.8654 24.4211 27.8841 24.4163C27.8981 24.4115 27.9028 24.3972 27.8981 24.3877C27.8934 24.3781 27.8981 24.3686 27.9074 24.3686C27.9168 24.3686 27.9262 24.3542 27.9262 24.3447C27.9262 24.3351 27.9355 24.3208 27.9448 24.3208C27.9542 24.3208 27.9635 24.3112 27.9635 24.3017C27.9776 24.2635 28.001 24.2253 28.0243 24.1918C28.0945 24.082 28.375 23.5709 28.4124 23.4849C28.6788 22.8687 28.8471 22.3194 28.9266 21.7701C28.964 21.5074 28.9874 21.025 28.9687 20.9103C28.964 20.8912 28.964 20.8578 28.9593 20.8052C28.95 20.7097 28.9453 20.5664 28.936 20.4231C28.9266 20.2082 28.9079 19.9072 28.8939 19.7592C28.6929 17.5906 28.1506 15.8185 27.122 13.9413C27.08 13.8696 27.0426 13.798 27.0192 13.7407C27.0098 13.7263 27.0052 13.712 27.0005 13.7025C27.1454 13.2582 27.7391 11.4001 28.2113 9.27457L28.2207 9.28412L28.2908 9.37965C28.4124 9.54683 28.7349 10.0436 28.8799 10.2824C29.539 11.381 30.0533 12.5609 30.418 13.7932C31.2642 16.7595 31.194 19.9216 30.2029 22.8448Z" fill="#F00500"/>
<path d="M24.1346 17.1368C24.1206 17.2133 23.9009 17.4425 23.6811 17.6097C23.036 18.0921 21.8812 18.5411 20.7078 18.7561C20.0392 18.8803 19.3707 18.8994 19.1697 18.7991C19.0388 18.7322 19.0201 18.6797 19.0668 18.5077C19.165 18.1495 19.4829 17.7578 19.9785 17.39C20.2309 17.2037 21.2548 16.5684 21.7316 16.3009C22.517 15.8615 23.1528 15.5988 23.5829 15.5367C23.7185 15.5176 23.8822 15.5128 23.9336 15.5367C24.0177 15.5701 24.1112 15.8233 24.1486 16.129C24.1673 16.2914 24.158 17.0079 24.1346 17.1368Z" fill="black"/>
<path d="M13.1202 18.7179C13.0922 18.7752 12.9519 18.8373 12.793 18.8612C12.634 18.885 12.1478 18.8707 11.872 18.8373C10.8809 18.7035 9.82898 18.3931 9.06226 18.0109C8.63215 17.796 8.3236 17.581 8.09452 17.347L7.96362 17.2085L7.94959 17.027C7.92621 16.7117 7.93089 16.2149 7.96829 16.0382C7.99167 15.8901 8.04309 15.7468 8.11322 15.6179C8.15062 15.5701 8.15062 15.5701 8.31892 15.5701C8.52463 15.5701 8.6976 15.6035 8.97811 15.6943C9.55314 15.8758 10.4087 16.3152 11.4512 16.9553C12.3114 17.4807 12.634 17.7387 12.8818 18.0921C13.0501 18.3119 13.1623 18.6223 13.1202 18.7179Z" fill="black"/>
<path d="M19.7402 25.3669C19.7402 25.3812 19.6841 25.6105 19.6139 25.8827C19.5438 26.155 19.4877 26.3747 19.4877 26.3843C19.4363 26.389 19.3895 26.3938 19.3381 26.389H19.1885L18.9828 26.8858C18.8706 27.1581 18.7678 27.4112 18.7537 27.4494L18.7257 27.5163L18.6275 27.3539L18.5293 27.1915V25.8684L18.4919 25.878C18.4124 25.8971 17.8468 25.9735 17.599 25.9974C16.5751 26.1025 15.5466 26.0786 14.5275 25.9305C14.3638 25.9066 14.2236 25.8875 14.2189 25.8923C14.2142 25.8971 14.2189 26.2028 14.2283 26.5801L14.2423 27.2584L14.1628 27.3826C14.1207 27.4495 14.0786 27.5068 14.0786 27.5115C14.0646 27.5259 14.0179 27.4495 13.9103 27.2297C13.7935 27.0005 13.7093 26.7568 13.6485 26.5037L13.6158 26.3652L13.4709 26.3747L13.326 26.389L13.2886 26.2123C13.2699 26.1168 13.2465 25.9687 13.2371 25.8875L13.2231 25.7347L13.1016 25.6248C13.0314 25.5627 12.9613 25.5006 12.9473 25.4911C12.9239 25.4719 12.9146 25.4385 12.9146 25.4098V25.3525L13.4989 25.3573L14.0833 25.3621L14.102 25.4242L14.1207 25.4863L14.3218 25.4958C14.434 25.5006 14.7893 25.5102 15.1072 25.5197L15.6916 25.534L15.8412 25.2952L15.9954 25.0564H16.1918L16.1871 24.5596L16.1824 24.0629L15.9253 23.9482C15.0978 23.5756 14.6116 23.1505 14.4293 22.6347C14.3919 22.5296 14.3919 22.4914 14.3825 22.0137C14.3779 21.5408 14.3779 21.4978 14.4106 21.3927C14.476 21.1539 14.6584 20.9676 14.8921 20.9055C14.9716 20.8817 15.182 20.8817 16.2853 20.8817L17.585 20.8864L17.7299 20.9581C17.9029 21.0441 17.9823 21.1062 18.0805 21.2399C18.1927 21.3927 18.2254 21.5122 18.2254 21.8035C18.2254 22.2191 18.1974 22.5773 18.1553 22.7206C18.0945 22.9165 18.001 23.1028 17.8842 23.2699C17.6504 23.5756 17.225 23.8813 16.8369 24.0199L16.7247 24.0629L16.7294 24.5644L16.7341 25.0659L16.8369 25.0755L16.9398 25.085L17.0801 25.3L17.2156 25.5149H17.8421C18.188 25.5149 18.4919 25.5197 18.52 25.5245C18.5667 25.534 18.5761 25.5293 18.6228 25.4481L18.6789 25.3621H19.2166C19.6186 25.343 19.7402 25.3525 19.7402 25.3669Z" fill="black"/>
<path d="M17.2715 26.7378C17.1827 26.7903 17.1219 26.8142 17.1079 26.8046C17.0939 26.7999 17.0284 26.7425 16.9583 26.69L16.8321 26.5849L16.7012 26.7282C16.416 27.0435 16.4066 27.0578 16.3225 27.0626C16.1916 27.0769 16.1635 27.053 16.0046 26.8094C15.9204 26.6852 15.855 26.5801 15.855 26.5801C15.855 26.5801 15.7942 26.5706 15.7241 26.5658L15.5932 26.5515L15.5324 26.6804L15.4716 26.8094L15.3641 26.776C15.28 26.7473 15.1958 26.7139 15.1163 26.6757L14.9761 26.604V26.3318L16.2196 26.3365L17.4632 26.3413L17.4679 26.4703C17.4726 26.6231 17.4772 26.6184 17.2715 26.7378Z" fill="black"/>
<path d="M28.9593 20.9103C28.9546 20.8912 28.9546 20.8578 28.95 20.8052C27.8279 20.6811 24.6255 20.6046 21.6522 23.1123C21.6522 23.1123 20.6938 18.6223 16.2057 18.6223C11.7176 18.6223 10.0533 23.1123 10.0533 23.1123C7.53809 20.3467 4.17203 20.5473 2.95651 20.7288C2.95651 20.7575 2.95183 20.7909 2.95183 20.8196C2.91443 21.5122 2.93313 21.8418 3.04533 22.2764C3.39596 23.6378 4.47591 25.1376 6.16829 26.6088C8.94061 29.0162 12.6994 30.7549 15.5465 30.9555C18.5152 31.1609 22.8957 29.3888 25.813 26.7998C26.2711 26.3843 26.7012 25.9448 27.1033 25.4767C27.3932 25.1328 27.8233 24.5405 27.7905 24.5405C27.7812 24.5405 27.7905 24.531 27.8092 24.5214C27.8233 24.5119 27.8373 24.4975 27.8279 24.488C27.8233 24.4832 27.8326 24.4689 27.8466 24.4641C27.8607 24.4593 27.87 24.4498 27.8653 24.4402C27.8607 24.4307 27.8653 24.4211 27.884 24.4163C27.8981 24.4116 27.9027 24.3972 27.8981 24.3877C27.8934 24.3781 27.8981 24.3686 27.9074 24.3686C27.9168 24.3686 27.9261 24.3542 27.9261 24.3447C27.9261 24.3351 27.9355 24.3208 27.9448 24.3208C27.9542 24.3208 27.9635 24.3113 27.9635 24.3017C27.9775 24.2635 28.0009 24.2253 28.0243 24.1918C28.0944 24.082 28.3749 23.5709 28.4123 23.4849C28.6788 22.8687 28.8471 22.3194 28.9266 21.7701C28.9546 21.5074 28.978 21.025 28.9593 20.9103ZM17.2716 26.7378C17.1828 26.7903 17.122 26.8142 17.108 26.8046C17.094 26.7998 17.0285 26.7425 16.9584 26.69L16.8321 26.5849L16.7012 26.7282C16.4161 27.0435 16.4067 27.0578 16.3226 27.0626C16.1917 27.0769 16.1636 27.053 16.0047 26.8094C15.9205 26.6852 15.8551 26.5801 15.8551 26.5801C15.8551 26.5801 15.7943 26.5706 15.7242 26.5658L15.5933 26.5515L15.5325 26.6804L15.4717 26.8094L15.3642 26.776C15.28 26.7473 15.1959 26.7139 15.1164 26.6757L14.9761 26.604V26.3317L16.2197 26.3365L17.4633 26.3413L17.468 26.4703C17.4726 26.6231 17.4773 26.6183 17.2716 26.7378ZM19.6091 25.878C19.539 26.1502 19.4829 26.37 19.4829 26.3795C19.4315 26.3843 19.3847 26.3891 19.3333 26.3843H19.1837L18.9827 26.8858C18.8705 27.1581 18.7676 27.4113 18.7536 27.4495L18.7256 27.5163L18.6274 27.3539L18.5292 27.1915V25.8684L18.4918 25.878C18.4123 25.8971 17.8466 25.9735 17.5989 25.9974C16.575 26.1025 15.5465 26.0786 14.5273 25.9305C14.3637 25.9066 14.2235 25.8875 14.2188 25.8923C14.2141 25.8971 14.2188 26.2028 14.2281 26.5801L14.2422 27.2584L14.1627 27.3826C14.1206 27.4495 14.0785 27.5068 14.0785 27.5116C14.0645 27.5259 14.0178 27.4495 13.9102 27.2297C13.7933 27.0005 13.7092 26.7569 13.6484 26.5037L13.6157 26.3652L13.4708 26.3747L13.3258 26.3891L13.2884 26.2123C13.2697 26.1168 13.2464 25.9687 13.237 25.8875L13.223 25.7347L13.1014 25.6248C13.0313 25.5627 12.9612 25.5006 12.9472 25.4911C12.9238 25.472 12.9144 25.4385 12.9144 25.4099V25.3525L13.4988 25.3573L14.0832 25.3621L14.1019 25.4242L14.1206 25.4863L14.3216 25.4958C14.4338 25.5006 14.7891 25.5102 15.107 25.5197L15.6914 25.5341L15.841 25.2952L15.9953 25.0564H16.1917L16.187 24.5596L16.1823 24.0629L15.9252 23.9482C15.0977 23.5757 14.6115 23.1505 14.4292 22.6347C14.3918 22.5296 14.3918 22.4914 14.3824 22.0137C14.3777 21.5408 14.3777 21.4978 14.4105 21.3928C14.4759 21.1539 14.6582 20.9676 14.892 20.9055C14.9715 20.8817 15.1818 20.8817 16.2852 20.8817L17.5848 20.8864L17.7298 20.9581C17.9027 21.0441 17.9822 21.1062 18.0804 21.2399C18.1926 21.3928 18.2253 21.5122 18.2253 21.8035C18.2253 22.2191 18.1973 22.5774 18.1552 22.7206C18.0944 22.9165 18.0009 23.1028 17.884 23.27C17.6503 23.5757 17.2249 23.8814 16.8368 24.0199L16.7246 24.0629L16.7293 24.5644L16.734 25.066L16.8368 25.0755L16.9397 25.0851L17.0799 25.3L17.2155 25.5149H17.842C18.1879 25.5149 18.4918 25.5197 18.5199 25.5245C18.5666 25.5341 18.576 25.5293 18.6227 25.4481L18.6788 25.3621H19.2164C19.6325 25.3621 19.7541 25.3669 19.7541 25.3812C19.7401 25.3764 19.6793 25.6105 19.6091 25.878Z" fill="white"/>
<path d="M28.922 20.4231C28.9127 20.2082 28.894 19.9072 28.8799 19.7592C28.6789 17.5906 28.1366 15.8185 27.1081 13.9413C27.066 13.8696 27.0286 13.798 27.0052 13.7407C26.9959 13.7264 26.9912 13.712 26.9865 13.7025C27.1315 13.2582 27.7252 11.4002 28.1974 9.27458C28.8379 6.38952 29.2446 3.01726 28.001 2.00463C28.001 2.00463 25.8505 1.84222 22.9706 4.72728C22.1899 5.52497 21.4746 6.38953 20.8388 7.31141L20.6378 7.24453C19.4784 6.85763 18.2769 6.6188 17.066 6.5376C16.7014 6.50894 15.3409 6.50894 14.8968 6.5376C13.555 6.62835 12.5265 6.83375 11.3577 7.24931C11.311 7.26842 11.2689 7.28275 11.2268 7.29708C10.5676 6.37997 9.83366 5.52019 9.02487 4.73205C6.02814 1.83267 3.79813 1.99985 3.79813 1.99985C2.47976 3.04592 2.92857 6.57104 3.61113 9.55162C4.05994 11.5243 4.61159 13.2582 4.8173 13.884C4.80327 13.9174 4.78457 13.9556 4.76587 13.9891C3.67658 16.2436 3.08752 18.417 2.94727 20.7288C4.16746 20.5473 7.52885 20.3419 10.0487 23.1123C10.0487 23.1123 11.713 18.6223 16.2011 18.6223C20.6892 18.6223 21.6476 23.1123 21.6476 23.1123C24.6209 20.6046 27.8234 20.6858 28.9454 20.8052C28.9407 20.7097 28.9314 20.5664 28.922 20.4231ZM5.70089 12.0832C5.70089 12.0832 3.95241 7.61711 4.40121 5.06641C4.47602 4.63652 4.61627 4.25917 4.836 3.97258C4.836 3.97258 6.81823 4.17319 10.016 7.80339C10.016 7.80339 9.40823 8.10432 8.59477 8.74438C8.59477 8.74438 8.59009 8.74916 8.58541 8.74916C7.70182 9.44176 6.57046 10.5404 5.70089 12.0832ZM13.1202 18.7179C13.0922 18.7752 12.9519 18.8373 12.793 18.8612C12.634 18.8851 12.1478 18.8707 11.872 18.8373C10.8809 18.7035 9.82899 18.3931 9.06227 18.0109C8.63217 17.796 8.32361 17.581 8.09453 17.347L7.96363 17.2085L7.9496 17.027C7.92623 16.7117 7.9309 16.2149 7.9683 16.0382C7.99168 15.8901 8.0431 15.7468 8.11323 15.6179C8.15063 15.5701 8.15063 15.5701 8.31894 15.5701C8.52464 15.5701 8.69762 15.6035 8.97812 15.6943C9.55316 15.8758 10.4087 16.3153 11.4512 16.9553C12.3115 17.4807 12.634 17.7387 12.8818 18.0921C13.0501 18.3119 13.1623 18.6223 13.1202 18.7179ZM24.1347 17.1368C24.1207 17.2133 23.901 17.4425 23.6813 17.6097C23.0361 18.0921 21.8813 18.5411 20.7079 18.7561C20.0394 18.8803 19.3708 18.8994 19.1698 18.7991C19.0389 18.7322 19.0202 18.6797 19.0669 18.5077C19.1651 18.1495 19.483 17.7578 19.9786 17.39C20.231 17.2037 21.2549 16.5684 21.7317 16.3009C22.5172 15.8615 23.153 15.5988 23.5831 15.5367C23.7187 15.5176 23.8823 15.5128 23.9337 15.5367C24.0179 15.5701 24.1114 15.8233 24.1488 16.129C24.1675 16.2914 24.1581 17.0079 24.1347 17.1368ZM23.3587 8.74438L23.3493 8.7396C22.5639 8.09954 21.9748 7.79862 21.9748 7.79862C25.0651 4.16842 26.9772 3.9678 26.9772 3.9678C27.1876 4.25917 27.3231 4.63174 27.3979 5.06164C27.8327 7.61233 26.145 12.0832 26.145 12.0832C25.4391 10.7983 24.49 9.66148 23.3587 8.74438Z" fill="#FFA409"/>
<path d="M27.4025 5.06164C27.0378 5.01387 25.3127 5.00432 23.3586 8.74438L23.3492 8.73961C22.5638 8.09954 21.9747 7.79862 21.9747 7.79862C25.065 4.16842 26.9771 3.9678 26.9771 3.9678C27.1921 4.25918 27.3277 4.63175 27.4025 5.06164Z" fill="#FF9300"/>
<path d="M26.1495 12.0832C25.4389 10.7935 24.4946 9.66149 23.3585 8.74439C25.3127 5.00432 27.0331 5.01388 27.4025 5.06164C27.8372 7.61711 26.1495 12.0832 26.1495 12.0832Z" fill="#FF8300"/>
<path d="M27.4726 5.07597C27.4492 5.0712 27.4258 5.06642 27.4025 5.06165L27.4726 5.07597Z" fill="#FF8300"/>
<path d="M10.0159 7.79862C10.0159 7.79862 9.40817 8.09954 8.59471 8.73961C8.59471 8.73961 8.59003 8.74438 8.58536 8.74438C6.56105 4.99955 4.77984 5.01387 4.39648 5.06164C4.47129 4.63175 4.61154 4.2544 4.83127 3.9678C4.83594 3.9678 6.81817 4.16842 10.0159 7.79862Z" fill="#FF9300"/>
<path d="M8.59018 8.74439C7.70191 9.44177 6.57055 10.5356 5.70098 12.0832C5.70098 12.0832 3.9525 7.61711 4.40131 5.06164C4.77999 5.01388 6.56587 5.00432 8.59018 8.74439Z" fill="#FF8300"/>
<path d="M4.40122 5.06165C4.37784 5.06642 4.34979 5.0712 4.32642 5.07597L4.40122 5.06165Z" fill="#FF8300"/>
<path d="M21.4185 14.5623C21.4185 14.5623 19.9224 14.6578 20.1094 13.4636C20.2964 12.2695 21.4652 12.1262 21.7925 12.174C22.1197 12.2217 23.4287 12.6994 23.195 13.7025C22.9612 14.7056 22.634 14.5145 22.447 14.5623C22.26 14.61 21.4185 14.5623 21.4185 14.5623Z" fill="white"/>
<path d="M10.3853 14.5623C10.3853 14.5623 8.88923 14.6578 9.07624 13.4636C9.26324 12.2695 10.432 12.1262 10.7593 12.174C11.0865 12.2217 12.3955 12.6994 12.1618 13.7025C11.928 14.7056 11.6008 14.5145 11.4138 14.5623C11.2268 14.61 10.3853 14.5623 10.3853 14.5623Z" fill="white"/>
</g>
<path d="M50.0472 13.7197C49.9995 13.194 49.7868 12.7853 49.4092 12.4938C49.0364 12.1975 48.5035 12.0493 47.8105 12.0493C47.3517 12.0493 46.9694 12.1091 46.6635 12.2285C46.3576 12.348 46.1282 12.5129 45.9753 12.7232C45.8223 12.9287 45.7435 13.1653 45.7387 13.4329C45.7291 13.6528 45.7721 13.8463 45.8677 14.0136C45.9681 14.1809 46.1115 14.3291 46.2979 14.4581C46.489 14.5824 46.7185 14.6923 46.9861 14.7879C47.2537 14.8835 47.5548 14.9671 47.8894 15.0388L49.1511 15.3255C49.8776 15.4833 50.518 15.6935 51.0724 15.9564C51.6316 16.2193 52.1 16.5323 52.4775 16.8955C52.8599 17.2588 53.149 17.677 53.345 18.1501C53.5409 18.6233 53.6413 19.1538 53.6461 19.7416C53.6413 20.6688 53.4071 21.4646 52.9435 22.1289C52.4799 22.7932 51.8132 23.3022 50.9434 23.6559C50.0783 24.0096 49.034 24.1864 47.8105 24.1864C46.5822 24.1864 45.5117 24.0024 44.5988 23.6344C43.686 23.2664 42.9762 22.7072 42.4696 21.9568C41.963 21.2065 41.7026 20.2578 41.6882 19.1108H45.0863C45.115 19.5839 45.2416 19.9782 45.4663 20.2936C45.6909 20.6091 45.9992 20.848 46.3911 21.0105C46.7878 21.173 47.2466 21.2543 47.7675 21.2543C48.2454 21.2543 48.6517 21.1898 48.9862 21.0607C49.3256 20.9317 49.586 20.7525 49.7677 20.523C49.9493 20.2936 50.0425 20.0308 50.0472 19.7345C50.0425 19.4573 49.9564 19.2207 49.7892 19.0247C49.6219 18.824 49.3638 18.6519 49.0149 18.5086C48.6708 18.3604 48.2311 18.2242 47.6958 18.0999L46.1617 17.7415C44.8904 17.4499 43.8891 16.9792 43.1579 16.3292C42.4266 15.6744 42.0634 14.7903 42.0682 13.6767C42.0634 12.7686 42.3071 11.9728 42.7994 11.2894C43.2917 10.606 43.9727 10.0731 44.8426 9.69073C45.7124 9.30838 46.7041 9.11721 47.8177 9.11721C48.9552 9.11721 49.9421 9.31077 50.7785 9.69789C51.6196 10.0802 52.272 10.6179 52.7356 11.3109C53.1992 12.0039 53.4358 12.8068 53.4453 13.7197H50.0472ZM55.4383 24V9.31794H58.987V15.2108H64.7723V9.31794H68.3138V24H64.7723V18.0999H58.987V24H55.4383ZM74.0884 9.31794V24H70.5398V9.31794H74.0884ZM76.3162 24V9.31794H82.4385C83.5377 9.31794 84.4577 9.47327 85.1985 9.78392C85.9441 10.0946 86.5033 10.5295 86.8761 11.0887C87.2536 11.6479 87.4424 12.2955 87.4424 13.0315C87.4424 13.5906 87.3253 14.0901 87.0911 14.5298C86.8569 14.9647 86.5343 15.3255 86.1233 15.6123C85.7123 15.8991 85.2368 16.0998 84.6967 16.2145V16.3579C85.2893 16.3865 85.8366 16.5467 86.3384 16.8382C86.845 17.1297 87.2512 17.536 87.5571 18.0569C87.863 18.5731 88.0159 19.1848 88.0159 19.8922C88.0159 20.6808 87.8152 21.3857 87.4137 22.007C87.0123 22.6236 86.4316 23.111 85.6717 23.4695C84.9118 23.8232 83.9894 24 82.9045 24H76.3162ZM79.8648 21.1396H82.0585C82.828 21.1396 83.3943 20.9938 83.7576 20.7023C84.1256 20.4107 84.3096 20.0045 84.3096 19.4835C84.3096 19.106 84.2212 18.781 84.0443 18.5086C83.8675 18.2314 83.6166 18.0187 83.2916 17.8705C82.9666 17.7176 82.5771 17.6411 82.123 17.6411H79.8648V21.1396ZM79.8648 15.3542H81.8291C82.2162 15.3542 82.5603 15.2897 82.8614 15.1607C83.1625 15.0316 83.3967 14.8452 83.564 14.6015C83.7361 14.3577 83.8221 14.0638 83.8221 13.7197C83.8221 13.2274 83.6476 12.8403 83.2987 12.5583C82.9499 12.2763 82.4791 12.1353 81.8865 12.1353H79.8648V15.3542ZM92.898 24H89.0841L94.0379 9.31794H98.7622L103.716 24H99.9021L96.4538 13.0171H96.3391L92.898 24ZM92.389 18.2218H100.361V20.9173H92.389V18.2218ZM113.183 9.31794V24H109.634V9.31794H113.183ZM127.906 9.31794V24H124.895L119.052 15.5263H118.959V24H115.41V9.31794H118.464L124.243 17.7773H124.364V9.31794H127.906ZM139.02 9.31794H142.561V18.7882C142.561 19.8826 142.301 20.8361 141.78 21.6486C141.259 22.4563 140.532 23.0824 139.6 23.5268C138.668 23.9665 137.586 24.1864 136.353 24.1864C135.105 24.1864 134.016 23.9665 133.084 23.5268C132.152 23.0824 131.428 22.4563 130.911 21.6486C130.395 20.8361 130.137 19.8826 130.137 18.7882V9.31794H133.686V18.4799C133.686 18.9865 133.796 19.4381 134.016 19.8348C134.24 20.2315 134.553 20.5422 134.955 20.7668C135.356 20.9914 135.822 21.1037 136.353 21.1037C136.883 21.1037 137.347 20.9914 137.744 20.7668C138.145 20.5422 138.458 20.2315 138.683 19.8348C138.907 19.4381 139.02 18.9865 139.02 18.4799V9.31794Z" fill="white"/>
<defs>
<clipPath id="clip0_301_2">
<rect width="30" height="31" fill="white" transform="translate(1 2)"/>
</clipPath>
</defs>
</svg>
